<svg width="129" height="61" viewBox="0 0 129 61" fill="none" xmlns="http://www.w3.org/2000/svg">
<path fill-rule="evenodd" clip-rule="evenodd" d="M8 19V8C8.00009 7.82961 8.04372 7.66207 8.12674 7.51327C8.20977 7.36448 8.32944 7.23936 8.47439 7.14981C8.61935 7.06025 8.78479 7.00921 8.95501 7.00155C9.12523 6.99388 9.29458 7.02984 9.447 7.106L21.447 13.106C21.6129 13.1891 21.7524 13.3168 21.8498 13.4747C21.9473 13.6326 21.9989 13.8145 21.9989 14C21.9989 14.1855 21.9473 14.3674 21.8498 14.5253C21.7524 14.6832 21.6129 14.8109 21.447 14.894L10 20.6175V53C10 53.5523 9.55228 54 9 54C8.44772 54 8 53.5523 8 53V20V19Z" fill="black"/>
<path d="M14 0C11.2311 0 8.52431 0.821086 6.22202 2.35943C3.91973 3.89777 2.12532 6.08427 1.06569 8.64243C0.00606596 11.2006 -0.271181 14.0155 0.269012 16.7313C0.809205 19.447 2.14258 21.9416 4.10051 23.8995C6.05845 25.8574 8.55301 27.1908 11.2687 27.731C13.9845 28.2712 16.7994 27.9939 19.3576 26.9343C21.9157 25.8747 24.1022 24.0803 25.6406 21.778C27.1789 19.4757 28 16.7689 28 14C28 10.287 26.525 6.72601 23.8995 4.1005C21.274 1.475 17.713 0 14 0ZM21.447 14.895L9.44701 20.895C9.29451 20.9712 9.12506 21.0072 8.95476 20.9994C8.78446 20.9917 8.61896 20.9406 8.47398 20.8509C8.32899 20.7613 8.20934 20.636 8.12639 20.4871C8.04343 20.3381 7.99993 20.1705 8.00001 20V8C8.0001 7.82961 8.04373 7.66207 8.12675 7.51327C8.20978 7.36448 8.32944 7.23936 8.4744 7.14981C8.61936 7.06025 8.78479 7.00921 8.95501 7.00155C9.12523 6.99388 9.29459 7.02984 9.44701 7.106L21.447 13.106C21.6129 13.1891 21.7524 13.3168 21.8498 13.4747C21.9473 13.6326 21.9989 13.8145 21.9989 14C21.9989 14.1855 21.9473 14.3674 21.8498 14.5253C21.7524 14.6832 21.6129 14.8109 21.447 14.894" fill="black"/>
<path fill-rule="evenodd" clip-rule="evenodd" d="M8 18.9991V8C8.00009 7.82961 8.04372 7.66207 8.12674 7.51327C8.20977 7.36448 8.32944 7.23936 8.47439 7.14981C8.61935 7.06025 8.78479 7.00921 8.95501 7.00155C9.12523 6.99388 9.29458 7.02984 9.447 7.106L21.447 13.106C21.6129 13.1891 21.7524 13.3168 21.8498 13.4747C21.9473 13.6326 21.9989 13.8145 21.9989 14C21.9989 14.1855 21.9473 14.3674 21.8498 14.5253C21.7524 14.6832 21.6129 14.8109 21.447 14.894L9.447 20.894C9.41753 20.9088 9.38742 20.922 9.35678 20.9338C9.38741 20.9221 9.41753 20.9088 9.44701 20.8941L10 20.6176V27.4155C9.3131 27.2107 8.64458 26.954 8 26.6482V20V18.9991Z" fill="white"/>
<path d="M32.4659 27V6.63636H34.9318V24.8125H44.3977V27H32.4659ZM48.9363 27H46.3511L53.8283 6.63636H56.3738L63.8511 27H61.2658L55.1806 9.85795H55.0215L48.9363 27ZM49.8908 19.0455H60.3113V21.233H49.8908V19.0455ZM61.7948 6.63636H64.6187L70.2664 16.142H70.505L76.1528 6.63636H78.9766L71.6187 18.608V27H69.1528V18.608L61.7948 6.63636Z" fill="black"/>
<path d="M27.3864 40C27.1676 39.3305 26.8793 38.7306 26.5213 38.2003C26.17 37.6634 25.7491 37.206 25.2585 36.8281C24.7746 36.4503 24.2244 36.1619 23.608 35.9631C22.9915 35.7642 22.3153 35.6648 21.5795 35.6648C20.3731 35.6648 19.276 35.9763 18.2884 36.5994C17.3007 37.2225 16.5152 38.1406 15.9318 39.3537C15.3485 40.5668 15.0568 42.0549 15.0568 43.8182C15.0568 45.5814 15.3518 47.0696 15.9418 48.2827C16.5317 49.4957 17.3305 50.4138 18.3381 51.0369C19.3456 51.66 20.4792 51.9716 21.7386 51.9716C22.9053 51.9716 23.9328 51.723 24.821 51.2259C25.7159 50.7221 26.4119 50.0128 26.9091 49.098C27.4129 48.1766 27.6648 47.0928 27.6648 45.8466L28.4205 46.0057H22.2955V43.8182H30.0511V46.0057C30.0511 47.6828 29.6932 49.1411 28.9773 50.3807C28.268 51.6203 27.2869 52.5814 26.0341 53.2642C24.7879 53.9403 23.3561 54.2784 21.7386 54.2784C19.9356 54.2784 18.3513 53.8542 16.9858 53.0057C15.6269 52.1572 14.5663 50.9508 13.804 49.3864C13.0483 47.822 12.6705 45.9659 12.6705 43.8182C12.6705 42.2074 12.8859 40.759 13.3168 39.473C13.7543 38.1804 14.3707 37.08 15.1662 36.1719C15.9616 35.2637 16.9029 34.5677 17.9901 34.0838C19.0772 33.5999 20.2737 33.358 21.5795 33.358C22.6534 33.358 23.6544 33.5204 24.5824 33.8452C25.517 34.1634 26.349 34.6174 27.0781 35.2074C27.8139 35.7907 28.4271 36.4901 28.9176 37.3054C29.4081 38.1141 29.7462 39.0123 29.9318 40H27.3864ZM32.8745 54V33.6364H39.7552C41.3461 33.6364 42.652 33.9081 43.6728 34.4517C44.6936 34.9886 45.4493 35.7277 45.9398 36.669C46.4304 37.6103 46.6756 38.6809 46.6756 39.8807C46.6756 41.0805 46.4304 42.1444 45.9398 43.0724C45.4493 44.0005 44.6969 44.7296 43.6827 45.2599C42.6685 45.7836 41.3726 46.0455 39.795 46.0455H34.2268V43.8182H39.7154C40.8025 43.8182 41.6775 43.6591 42.3404 43.3409C43.0099 43.0227 43.4938 42.572 43.7921 41.9886C44.097 41.3987 44.2495 40.696 44.2495 39.8807C44.2495 39.0653 44.097 38.3527 43.7921 37.7429C43.4872 37.133 43 36.6624 42.3305 36.331C41.661 35.9929 40.776 35.8239 39.6756 35.8239H35.3404V54H32.8745ZM42.4597 44.8523L47.4711 54H44.6075L39.6756 44.8523H42.4597ZM66.5665 43.8182C66.5665 45.9659 66.1787 47.822 65.4031 49.3864C64.6276 50.9508 63.5636 52.1572 62.2114 53.0057C60.8591 53.8542 59.3146 54.2784 57.5778 54.2784C55.8411 54.2784 54.2966 53.8542 52.9443 53.0057C51.592 52.1572 50.5281 50.9508 49.7526 49.3864C48.977 47.822 48.5892 45.9659 48.5892 43.8182C48.5892 41.6705 48.977 39.8144 49.7526 38.25C50.5281 36.6856 51.592 35.4792 52.9443 34.6307C54.2966 33.7822 55.8411 33.358 57.5778 33.358C59.3146 33.358 60.8591 33.7822 62.2114 34.6307C63.5636 35.4792 64.6276 36.6856 65.4031 38.25C66.1787 39.8144 66.5665 41.6705 66.5665 43.8182ZM64.1801 43.8182C64.1801 42.0549 63.8851 40.5668 63.2952 39.3537C62.7118 38.1406 61.9197 37.2225 60.9188 36.5994C59.9244 35.9763 58.8108 35.6648 57.5778 35.6648C56.3449 35.6648 55.2279 35.9763 54.227 36.5994C53.2327 37.2225 52.4405 38.1406 51.8506 39.3537C51.2672 40.5668 50.9756 42.0549 50.9756 43.8182C50.9756 45.5814 51.2672 47.0696 51.8506 48.2827C52.4405 49.4957 53.2327 50.4138 54.227 51.0369C55.2279 51.66 56.3449 51.9716 57.5778 51.9716C58.8108 51.9716 59.9244 51.66 60.9188 51.0369C61.9197 50.4138 62.7118 49.4957 63.2952 48.2827C63.8851 47.0696 64.1801 45.5814 64.1801 43.8182ZM82.6764 33.6364H85.1423V47.1193C85.1423 48.5114 84.8142 49.7543 84.158 50.848C83.5083 51.9351 82.5902 52.7936 81.4037 53.4233C80.2171 54.0464 78.8251 54.358 77.2276 54.358C75.63 54.358 74.238 54.0464 73.0514 53.4233C71.8649 52.7936 70.9435 51.9351 70.2872 50.848C69.6376 49.7543 69.3128 48.5114 69.3128 47.1193V33.6364H71.7787V46.9205C71.7787 47.9148 71.9974 48.7997 72.4349 49.5753C72.8724 50.3442 73.4955 50.9508 74.3043 51.3949C75.1196 51.8324 76.094 52.0511 77.2276 52.0511C78.3611 52.0511 79.3355 51.8324 80.1509 51.3949C80.9662 50.9508 81.5893 50.3442 82.0202 49.5753C82.4577 48.7997 82.6764 47.9148 82.6764 46.9205V33.6364ZM104.814 33.6364V54H102.428L91.3315 38.0114H91.1326V54H88.6667V33.6364H91.0531L102.189 49.6648H102.388V33.6364H104.814ZM114.633 54H108.349V33.6364H114.911C116.887 33.6364 118.577 34.044 119.982 34.8594C121.388 35.6681 122.465 36.8314 123.214 38.3494C123.963 39.8608 124.337 41.6705 124.337 43.7784C124.337 45.8996 123.96 47.7259 123.204 49.2571C122.448 50.7817 121.348 51.955 119.903 52.777C118.458 53.5923 116.701 54 114.633 54ZM110.815 51.8125H114.474C116.157 51.8125 117.553 51.4877 118.66 50.8381C119.767 50.1884 120.592 49.2637 121.136 48.0639C121.679 46.8641 121.951 45.4356 121.951 43.7784C121.951 42.1345 121.683 40.7192 121.146 39.5327C120.609 38.3395 119.807 37.4247 118.739 36.7884C117.672 36.1454 116.343 35.8239 114.752 35.8239H110.815V51.8125Z" fill="black"/>
<rect x="8" y="57" width="121" height="2" rx="1" fill="black"/>
<rect x="8" y="2" width="121" height="2" rx="1" fill="black"/>
<rect x="127" y="59" width="57" height="2" rx="1" transform="rotate(-90 127 59)" fill="black"/>
<rect x="8" y="49" width="2" height="9" fill="black"/>
</svg>
